<?xml version="1.0" standalone="no"?>
<!DOCTYPE svg PUBLIC "-//W3C//DTD SVG 20010904//EN"
 "http://www.w3.org/TR/2001/REC-SVG-20010904/DTD/svg10.dtd">
<svg version="1.0" xmlns="http://www.w3.org/2000/svg"
 width="1000.000000pt" height="1000.000000pt" viewBox="0 0 1000.000000 1000.000000"
 preserveAspectRatio="xMidYMid meet">
<metadata>
Created by potrace 1.14, written by Peter Selinger 2001-2017
</metadata>
<g transform="translate(0.000000,1000.000000) scale(0.100000,-0.100000)"
fill="#000000" stroke="none">
<path d="M8570 6745 c-328 -63 -322 -61 -370 -102 -78 -67 -94 -138 -66 -286
18 -92 33 -123 93 -187 55 -59 117 -92 176 -92 23 -1 147 19 274 42 128 24
234 42 237 39 2 -2 6 -21 10 -41 8 -44 36 -35 -262 -89 -240 -43 -241 -43
-254 -7 -3 7 -195 -24 -201 -33 -2 -2 1 -24 6 -49 7 -37 22 -58 86 -120 115
-115 106 -114 452 -50 155 28 292 56 305 60 33 13 93 69 111 104 30 58 33 95
13 201 -22 123 -33 146 -102 211 -109 103 -116 104 -426 48 -139 -26 -255 -45
-256 -43 -2 2 -6 21 -10 41 -8 44 -38 34 254 88 242 45 250 46 250 26 0 -24
12 -25 95 -10 134 24 125 20 119 57 -9 47 -46 106 -97 154 -101 93 -137 96
-437 38z"/>
<path d="M2800 6742 c-19 -9 -40 -28 -47 -42 -7 -14 -234 -477 -504 -1030
-270 -553 -517 -1057 -548 -1120 l-56 -115 -430 -78 c-309 -55 -437 -82 -455
-95 -14 -11 -30 -35 -37 -55 -18 -55 -2 -96 58 -147 42 -36 97 -61 303 -142
138 -55 252 -101 254 -103 2 -1 -272 -564 -607 -1250 -421 -860 -611 -1257
-611 -1279 1 -43 18 -70 74 -116 39 -33 56 -40 90 -40 23 0 53 8 66 17 72 50
788 608 865 674 138 119 345 357 345 396 0 16 0 16 -45 -3 -38 -16 -40 -10 -7
29 11 13 13 20 4 29 -8 8 -38 0 -114 -31 -195 -78 -346 -172 -622 -387 -56
-43 -96 -69 -92 -58 5 10 9 26 10 34 0 8 6 18 11 22 6 3 213 421 460 927 248
506 455 921 461 921 6 0 100 -35 210 -79 109 -43 406 -160 659 -260 312 -122
473 -181 499 -181 30 0 45 7 73 35 l35 35 -6 92 c-10 154 -29 1049 -22 1055 3
3 1337 248 2964 543 2270 412 2999 548 3134 584 151 40 433 136 533 180 17 8
41 18 55 22 20 7 11 10 -45 14 l-70 5 43 15 c83 30 49 35 -196 32 -429 -6
-374 3 -3552 -576 -1581 -287 -2876 -522 -2877 -521 -1 0 -12 412 -23 915 -12
503 -23 938 -26 967 -4 43 -13 62 -50 107 -40 48 -83 76 -118 76 -6 0 -27 -8
-46 -18z m-34 -1420 c9 -370 15 -675 12 -677 -2 -2 -168 -34 -368 -70 -201
-36 -373 -67 -382 -69 -16 -4 -16 -2 1 33 10 20 175 357 366 748 192 392 350
712 351 710 2 -1 11 -305 20 -675z m24 -1009 c0 -21 5 -206 10 -412 6 -205 9
-375 7 -378 -4 -3 -1053 404 -1066 414 -8 6 105 236 119 241 14 5 888 168 918
171 7 1 12 -13 12 -36z m-1310 -208 c0 -2 -5 -16 -12 -30 -12 -27 -18 -27 -82
0 l-31 13 30 7 c17 4 35 8 40 10 16 5 55 6 55 0z"/>
<path d="M6692 6410 c-287 -55 -323 -69 -368 -146 -43 -74 -42 -108 25 -469
34 -181 64 -343 67 -358 4 -21 10 -26 24 -22 14 4 20 -1 25 -24 6 -26 10 -30
33 -25 15 3 60 11 100 18 40 8 75 16 78 18 2 3 -25 159 -60 349 -35 189 -61
347 -58 351 4 4 119 28 257 53 137 26 251 47 252 48 1 1 -2 22 -7 47 -5 25
-14 71 -20 102 -9 47 -15 57 -33 60 -14 2 -23 11 -25 26 -2 13 -10 22 -20 21
-9 0 -131 -22 -270 -49z"/>
<path d="M4500 6293 c-41 -8 -76 -16 -78 -17 -4 -5 176 -976 189 -1014 15 -45
111 -146 163 -171 57 -28 91 -27 299 11 203 37 187 22 161 155 -14 70 -20 82
-38 85 -13 2 -22 12 -24 26 -4 28 -8 28 -176 -4 -76 -14 -140 -24 -142 -21 -5
5 -85 429 -81 432 1 1 78 16 171 34 93 17 172 33 174 36 3 3 -3 50 -13 105
-17 93 -20 100 -42 100 -18 0 -23 5 -23 25 0 14 -6 25 -12 25 -7 -1 -79 -13
-160 -28 l-147 -28 -10 50 c-6 28 -15 79 -22 112 -9 52 -14 61 -30 57 -13 -4
-20 2 -25 21 -7 31 -21 32 -134 9z"/>
<path d="M5562 6201 c-199 -38 -364 -70 -367 -72 -2 -3 5 -49 16 -104 10 -55
19 -101 19 -103 0 -2 8 -1 19 3 14 4 20 -1 24 -25 6 -25 10 -30 29 -25 13 2
160 30 328 60 168 31 310 58 317 60 12 4 35 -77 24 -82 -4 -2 -163 -32 -355
-68 -192 -35 -351 -66 -353 -69 -8 -7 57 -355 73 -393 18 -46 114 -139 166
-163 24 -11 56 -20 72 -20 37 0 748 130 758 139 9 8 -116 700 -134 744 -6 15
-41 57 -77 93 -49 48 -78 68 -115 79 -27 8 -57 15 -65 14 -9 0 -179 -31 -379
-68z m463 -553 c3 -7 6 -31 8 -52 l2 -39 -230 -43 c-126 -23 -231 -42 -231
-41 -3 4 -23 102 -21 103 4 4 424 82 445 83 12 1 25 -5 27 -11z"/>
<path d="M7477 6178 c-11 -9 -21 -40 -29 -93 -6 -44 -13 -82 -14 -84 -2 -2
-42 -11 -89 -21 -48 -10 -92 -23 -98 -29 -15 -15 68 -95 121 -116 l38 -16 -13
-81 c-13 -88 -6 -114 29 -105 10 3 16 1 13 -4 -8 -13 13 -49 29 -49 8 0 43 31
78 68 l65 69 88 -44 c81 -41 89 -43 104 -28 15 15 12 23 -30 104 l-46 87 64
72 c56 62 63 75 52 88 -8 9 -22 14 -37 11 -17 -3 -20 -1 -13 6 17 17 13 35 -7
41 -10 4 -51 0 -91 -7 l-72 -14 -19 37 c-18 34 -90 120 -101 120 -3 0 -13 -6
-22 -12z"/>
<path d="M3833 5880 c-139 -26 -266 -53 -283 -60 -66 -27 -131 -130 -130 -206
1 -46 35 -196 52 -229 22 -42 120 -133 163 -150 52 -22 98 -18 350 29 127 24
232 42 233 41 9 -8 14 -85 6 -85 -5 0 -117 -20 -248 -45 -132 -24 -243 -42
-248 -39 -4 3 -8 12 -8 20 0 18 -4 18 -117 -3 -82 -14 -93 -19 -93 -37 1 -40
40 -108 93 -160 66 -64 110 -86 173 -86 59 0 523 85 581 106 53 19 119 92 134
148 10 33 8 62 -6 146 -20 124 -37 159 -103 222 -107 99 -130 102 -437 44
-258 -49 -255 -49 -255 10 l0 30 243 46 c235 44 242 45 259 27 20 -23 21 -23
131 -3 77 14 87 18 87 38 -1 62 -114 198 -192 231 -55 22 -107 18 -385 -35z"/>
<path d="M8755 5236 c-17 -7 -36 -20 -43 -29 -13 -15 -16 -15 -38 -1 -29 20
-81 12 -118 -17 -14 -11 -26 -16 -26 -10 0 6 -9 11 -20 11 -25 0 -25 -5 2
-151 21 -114 23 -119 46 -119 23 0 24 2 18 43 -19 130 -19 167 -1 187 21 23
58 26 78 6 8 -8 22 -58 32 -110 16 -90 18 -96 41 -96 28 0 28 2 9 103 -8 43
-15 85 -15 93 0 22 38 54 63 54 36 0 53 -28 66 -110 7 -41 15 -83 17 -92 6
-19 39 -25 48 -9 3 4 -3 55 -14 112 -16 85 -24 108 -45 127 -29 25 -56 27
-100 8z"/>
<path d="M8263 5143 c-58 -29 -39 -63 21 -38 45 19 61 19 80 -1 28 -27 18 -42
-38 -58 -75 -22 -100 -45 -100 -91 0 -29 7 -43 28 -61 35 -31 74 -30 119 1 20
13 39 20 42 15 4 -6 15 -10 26 -10 18 0 19 4 13 38 -38 213 -43 222 -112 221
-26 0 -62 -8 -79 -16z m127 -158 c0 -41 -33 -68 -77 -63 -24 3 -28 8 -28 33 0
24 7 33 35 47 55 28 70 24 70 -17z"/>
<path d="M7760 5091 c0 -19 -8 -35 -21 -45 -23 -16 -18 -36 10 -36 15 0 21
-14 31 -77 15 -95 32 -131 67 -139 37 -10 77 7 81 33 3 20 0 21 -30 16 -44 -7
-52 5 -67 95 -14 78 -11 88 29 94 17 2 25 9 25 22 0 16 -7 20 -40 20 -34 1
-41 5 -43 24 -2 14 -10 22 -23 22 -14 0 -19 -7 -19 -29z"/>
<path d="M8005 5101 c-36 -15 -58 -49 -63 -100 -9 -99 42 -172 121 -170 67 1
111 21 115 52 4 31 0 33 -33 11 -37 -24 -105 -21 -127 6 -30 37 -23 46 55 59
112 19 106 16 95 61 -19 73 -93 109 -163 81z m95 -58 l22 -28 -49 -12 c-70
-16 -83 -16 -83 5 0 27 37 62 65 62 14 0 32 -11 45 -27z"/>
<path d="M7130 5053 c-1 -23 64 -369 71 -376 4 -5 16 0 27 11 13 13 24 17 33
11 22 -14 67 -11 100 7 72 37 77 168 9 236 -36 35 -103 39 -143 8 l-25 -20 -6
38 c-16 90 -17 92 -42 92 -13 0 -24 -3 -24 -7z m185 -129 c25 -10 45 -59 45
-113 0 -40 -4 -53 -22 -65 -31 -22 -64 -20 -87 5 -23 24 -37 95 -27 134 9 34
53 53 91 39z"/>
<path d="M6700 4973 c0 -5 14 -90 32 -190 l33 -183 28 0 c22 0 27 4 23 18 -3
9 -16 82 -31 162 -38 215 -33 200 -61 200 -13 0 -24 -3 -24 -7z"/>
<path d="M7033 4922 c-9 -6 -8 -25 3 -82 8 -41 14 -85 14 -96 0 -48 -67 -88
-103 -62 -11 8 -22 42 -32 93 -24 128 -22 123 -50 117 -14 -2 -25 -5 -25 -6 0
0 9 -48 20 -105 23 -124 42 -151 102 -151 43 0 98 24 98 43 0 6 5 4 11 -5 11
-20 18 -22 36 -10 10 6 9 31 -7 118 -11 60 -22 119 -25 132 -5 22 -21 28 -42
14z"/>
<path d="M6554 4836 c-47 -21 -64 -52 -64 -116 0 -109 69 -175 156 -151 56 16
67 25 59 50 -6 20 -8 20 -35 6 -66 -34 -118 -1 -127 79 -8 67 14 96 71 96 42
0 56 10 56 41 0 14 -81 10 -116 -5z"/>
<path d="M5813 4803 c-18 -7 -16 -53 3 -60 8 -3 22 1 30 9 24 24 -1 62 -33 51z"/>
<path d="M6000 4739 c-41 -16 -60 -40 -60 -74 0 -42 22 -60 94 -79 66 -17 81
-27 73 -50 -9 -24 -56 -38 -103 -32 -39 5 -41 4 -36 -19 4 -23 9 -25 56 -25
67 0 118 27 130 69 14 50 -15 82 -95 101 -47 11 -65 20 -67 34 -5 25 14 36 69
36 38 0 48 4 52 19 3 11 2 22 -1 25 -9 9 -85 6 -112 -5z"/>
<path d="M5824 4695 c-9 -22 38 -265 50 -265 37 1 39 15 15 149 -19 113 -25
131 -41 131 -10 0 -21 -7 -24 -15z"/>
<path d="M5620 4669 c-13 -6 -32 -17 -41 -25 -11 -10 -19 -12 -24 -5 -3 6 -15
11 -26 11 -17 0 -20 -5 -15 -27 3 -16 13 -68 21 -118 22 -123 23 -125 51 -125
13 0 24 2 24 4 0 2 -7 40 -15 83 -8 43 -15 88 -15 101 0 55 85 85 114 40 8
-13 19 -54 25 -93 7 -38 14 -78 17 -87 5 -18 39 -25 48 -10 6 11 -30 196 -44
222 -19 36 -71 48 -120 29z"/>
<path d="M5291 4599 c-23 -14 -36 -17 -41 -9 -9 15 -40 1 -39 -19 1 -43 45
-245 54 -248 6 -1 16 1 24 6 11 7 11 22 1 94 -16 108 -11 132 36 147 53 18 69
-3 92 -120 16 -84 20 -95 37 -92 11 2 22 6 24 8 10 9 -31 201 -48 224 -25 34
-92 39 -140 9z"/>
<path d="M4767 4574 c-4 -4 -7 -17 -7 -29 0 -12 -9 -30 -20 -40 -26 -24 -26
-49 0 -42 22 6 23 4 40 -98 17 -95 30 -115 79 -115 53 0 71 8 71 32 0 16 -5
18 -33 13 -43 -8 -52 4 -67 85 -6 36 -13 72 -16 81 -3 13 5 18 36 23 41 6 46
11 31 34 -6 9 -19 11 -44 7 -33 -7 -36 -5 -39 21 -3 27 -18 41 -31 28z"/>
<path d="M5003 4556 c-46 -21 -66 -57 -66 -121 0 -126 102 -187 214 -129 17 8
29 23 29 34 0 24 -9 25 -46 5 -55 -28 -107 -18 -129 25 -17 32 -28 27 103 51
68 13 75 24 48 77 -32 62 -93 85 -153 58z m89 -53 c31 -28 21 -40 -42 -50 -57
-9 -60 -8 -60 10 0 49 64 74 102 40z"/>
<path d="M4136 4499 c-21 -16 -26 -29 -26 -64 0 -34 -5 -47 -20 -55 -29 -16
-26 -38 5 -32 14 2 25 2 25 0 0 -11 40 -222 43 -224 5 -5 47 8 47 15 0 3 -9
53 -20 110 -21 110 -19 120 23 121 11 0 17 8 17 21 0 19 -4 21 -35 16 -33 -5
-35 -4 -35 22 0 33 16 51 46 51 18 0 34 17 34 36 0 14 -81 1 -104 -17z"/>
<path d="M4280 4466 c0 -14 -9 -35 -20 -46 -25 -25 -26 -40 -1 -40 20 0 25
-15 47 -144 8 -48 35 -76 72 -76 48 0 72 11 72 32 0 17 -5 20 -29 15 -41 -9
-58 10 -71 78 -6 33 -13 70 -16 82 -4 20 1 24 36 29 42 7 45 10 31 33 -6 10
-19 12 -44 7 -33 -6 -36 -5 -39 21 -4 38 -38 45 -38 9z"/>
<path d="M3862 4340 c-18 -11 -37 -32 -42 -46 -25 -65 3 -166 55 -200 39 -25
118 -15 155 21 53 51 48 159 -10 217 -23 23 -37 28 -77 28 -30 0 -60 -7 -81
-20z m103 -26 c37 -15 60 -118 35 -164 -13 -24 -63 -35 -90 -20 -26 14 -50 67
-50 110 0 54 55 93 105 74z"/>
<path d="M3625 4305 c-97 -35 -86 -121 17 -145 70 -17 88 -27 88 -51 0 -26
-43 -42 -98 -36 -39 4 -43 3 -40 -16 4 -26 39 -36 92 -26 57 10 90 39 94 82 4
49 -20 71 -97 86 -99 20 -91 71 11 71 40 0 48 3 48 19 0 33 -47 40 -115 16z"/>
</g>
</svg>
